<?xml version="1.0" encoding="UTF-8"?>
<svg width="55px" height="36px" viewBox="0 0 55 36" version="1.1" xmlns="http://www.w3.org/2000/svg" xmlns:xlink="http://www.w3.org/1999/xlink">
    <!-- Generator: Sketch 52.1 (67048) - http://www.bohemiancoding.com/sketch -->
    <title>Group 29 Copy 24</title>
    <desc>Created with Sketch.</desc>
    <g id="wizytowki" stroke="none" stroke-width="1" fill="none" fill-rule="evenodd">
        <g id="Artboard" transform="translate(-23.000000, -34.000000)" fill="#373F52">
            <g id="Group-Copy-5" transform="translate(-184.000000, -253.000000)">
                <g id="Group-29-Copy-24" transform="translate(207.000000, 287.000000)">
                    <path d="M52.1214822,32.0055688 C53.1342959,29.5254389 53.6842473,26.5520815 54.2159208,23.67667 C54.3642948,22.8750295 54.5099808,22.0867983 54.6621179,21.3265517 C54.9276859,20.0066142 55.0502557,19.1612479 54.980907,18.1998623 C54.9147838,17.2705424 54.1094786,16.2205391 53.0606465,16.1989677 C51.6666837,16.163987 50.9242762,16.7988863 50.6592459,18.2599125 L50.1996091,20.8030076 C49.8458769,22.7607593 49.4921447,24.7173451 49.1271232,26.6715988 C49.1163715,26.731066 49.101319,26.8307609 49.0819659,26.9566913 C48.865856,28.3739917 48.6793133,29.220524 48.3099911,29.634462 C48.2524693,29.6985933 47.7358483,30.2431258 47.0385981,30.1183614 C46.6902418,30.0559792 46.1956618,29.8017863 45.8155879,28.9517558 C45.6182935,28.4066403 45.3844432,27.2965869 45.2602606,26.678595 C44.9425468,25.0998005 44.6355846,23.518091 44.3275473,21.9363814 C43.6679282,18.5356768 42.9846553,15.0207019 42.2019287,11.5593641 C41.59123,8.86060503 40.7585079,6.09363362 39.7268786,3.3365734 C38.8527623,1.00044731 37.5485765,0 35.6068126,0 C33.2489565,0 32.0598143,1.53215357 31.1233379,3.41877799 C29.7863593,6.11345601 29.0864211,9.13170527 28.3725057,12.5137535 C27.7661077,15.3810029 27.2097053,18.3240437 26.6721184,21.1691386 C26.3882725,22.6703926 26.1157159,24.1150945 25.8356331,25.5574643 C25.8076786,25.7020511 25.1744012,28.6643313 25.0856994,28.8847096 C24.7540083,29.7085045 24.3153374,30.1084502 23.771837,30.1032031 C22.9509418,30.0787166 22.5240978,29.0374585 22.4133549,28.7185513 C22.3988401,28.6736595 22.1666025,27.8673549 22.1235956,27.7285982 C22.0096272,27.3624672 21.8983467,26.9992512 21.8160959,26.5888112 C21.491931,24.9779511 21.1790554,23.363593 20.8656422,21.7486518 C20.20226,18.3269588 19.5184495,14.8014897 18.7427116,11.3774646 C18.1320128,8.67579047 17.3003659,5.94671479 16.2719622,3.26719507 C15.4317138,1.07448974 13.8313176,0.310161987 12.4378924,0.256524952 C12.4378924,0.256524952 9.25430277,0.155080993 7.83561094,3.34007147 L7.83614852,3.34007147 C6.62819076,5.91173411 5.6949399,8.8279564 4.89662335,12.5178346 C4.40688168,14.7834164 4.13217478,16.5073806 4.00637944,18.1077465 C3.92950452,19.0831244 4.55579326,20.0975639 5.4320599,20.4182201 C6.10726905,20.6636679 6.78086544,20.6106138 7.33081684,20.2654712 C7.83883646,19.944815 8.20009486,19.3845412 8.34631849,18.6878427 C8.70972724,16.9557163 9.03066662,15.177532 9.34085426,13.4582318 C9.50105515,12.5743867 10.4273174,8.00474451 10.6289125,7.46720814 C10.8030906,6.88128183 11.1944539,5.57475361 12.0932992,5.57475361 C12.1056637,5.57475361 12.116953,5.57591963 12.1287799,5.57591963 C12.9760169,5.60798525 13.3517901,6.73086492 13.6076815,7.82517705 C13.7286385,8.34638911 13.9673271,9.57304479 14.176986,10.6551137 C14.2888041,11.2282137 14.3925584,11.7640011 14.4672829,12.1330472 C14.81994,13.8756678 15.1650707,15.5792267 15.5279419,17.2781215 C15.7354504,18.2465032 15.9386583,19.2166339 16.140791,20.1879307 C16.7955718,23.3175351 17.4686306,26.5322591 18.2717854,29.6257169 C18.742174,31.4330517 19.5791968,33.0217574 20.1984969,34.036197 C20.9409044,35.2517755 22.116607,35.9647982 23.4261686,35.9933658 C25.5501745,36.0627441 27.4139883,34.5230114 28.3940092,31.963592 C29.7256119,28.4865129 30.471245,24.6829474 31.1916114,21.0053125 C31.1926866,21.0029804 32.9790879,11.7447617 33.3123917,10.0802646 C33.4016312,9.63134591 33.9268536,7.38150548 34.0504986,7.03403078 C34.3983173,5.71817438 35.0568612,5.55726327 35.3815637,5.58000071 C35.3993041,5.57883469 35.4170445,5.57883469 35.4353224,5.57883469 C36.3685733,5.57883469 36.9437913,6.96931653 37.7394199,11.0527273 L37.7904906,11.3139164 C38.1888425,13.260591 38.5780554,15.2095976 38.9672684,17.1591872 C39.6387144,20.516749 40.3219873,23.935527 41.0332148,27.2825946 C41.6487518,30.1830756 42.4330911,32.2137038 43.577076,33.8694558 C45.1661829,36.1723502 47.3240567,36.625933 49.651808,35.1445014 C50.6699976,34.4979419 51.5704557,33.3540738 52.1214822,32.0055688" id="Fill-11"></path>
                    <path d="M2.49981579,31 L2.4715474,31 C1.11411044,31.0108881 0.0022204615,32.1307254 3.33292879e-06,33.4955442 C-0.00110523136,34.1248743 0.274372993,34.7623704 0.755489892,35.2441672 C1.24935528,35.7368521 1.87015128,36.0259302 2.53750698,35.9981656 C3.1638458,35.9883664 3.79683601,35.6916666 4.27906147,35.1853717 C4.74909273,34.6937756 5.01126818,34.0677119 4.99962825,33.4677796 C4.97523984,32.1067717 3.85337278,31 2.49981579,31" id="Fill-13"></path>
                </g>
            </g>
        </g>
    </g>
</svg>